# Blender v2.80 (sub 75) OBJ File: 'lightcycle.blend'
# www.blender.org
o lightcycle_Cube.001
v -0.667539 -3.112299 1.583736
v -0.804011 1.995272 1.446557
v -0.915329 -1.956078 -1.564139
v -0.804011 1.726887 -0.646726
v 0.667539 -3.112299 1.583736
v 0.804011 1.995272 1.446557
v 0.915329 -1.956078 -1.564139
v 0.804011 1.726887 -0.646726
v -0.667539 -0.195970 2.152048
v -0.667539 -0.019597 -1.544542
v 0.667539 -0.019597 -1.544542
v 0.667539 -0.195970 2.152048
v 1.219036 -2.719187 0.200243
v -1.219036 -2.719187 0.200243
v -0.403781 3.678820 -1.240868
v -0.369584 -4.464152 0.901957
v 0.369584 -4.464152 0.901957
v -0.403781 4.255372 -0.647082
v 0.403781 3.678820 -1.240868
v 0.403781 4.255372 -0.647082
v -0.542624 3.621506 -0.317365
v -0.542624 3.982701 -0.678560
v -0.542624 3.260312 -0.678560
v -0.542624 3.621506 -1.039754
v 0.542624 3.621506 -0.317365
v 0.542624 3.982701 -0.678560
v 0.542624 3.260312 -0.678560
v 0.542624 3.621506 -1.039754
v -0.376334 2.298476 -1.246227
v -0.376334 2.298476 -0.110893
v -0.376334 3.053840 0.644471
v -0.376334 4.189173 0.644471
v -0.376334 4.944537 -0.110893
v -0.376334 4.944537 -1.246227
v -0.376334 4.189173 -2.001591
v -0.376334 3.053840 -2.001591
v 0.376334 3.053840 -2.001591
v 0.376334 4.189173 -2.001591
v 0.376334 2.298476 -0.110893
v 0.376334 2.298476 -1.246227
v 0.376334 4.189173 0.644471
v 0.376334 3.053840 0.644471
v 0.861911 3.621506 -0.678560
v 0.376334 4.944537 -1.246227
v 0.376334 4.944537 -0.110893
v -0.861911 3.621506 -0.678560
v -0.712408 -3.485206 0.167021
v -0.712408 -2.713023 -0.605162
v -0.712408 -4.257389 -0.605162
v -0.712408 -3.485206 -1.377345
v 0.712408 -3.485206 0.167021
v 0.712408 -2.713023 -0.605162
v 0.712408 -4.257389 -0.605162
v 0.712408 -3.485206 -1.377345
v -0.712408 -4.888504 -1.207268
v -0.712408 -4.888504 -0.003055
v -0.712408 -4.087312 0.798136
v -0.712408 -2.883099 0.798136
v -0.712408 -2.081908 -0.003055
v -0.712408 -2.081908 -1.207268
v -0.712408 -2.883099 -2.008460
v -0.712408 -4.087312 -2.008460
v 0.712408 -4.087312 -2.008460
v 0.712408 -2.883099 -2.008460
v 0.712408 -4.888504 -0.003055
v 0.712408 -4.888504 -1.207268
v 0.712408 -2.883099 0.798136
v 0.712408 -4.087312 0.798136
v 1.131597 -3.485206 -0.605162
v 0.712408 -2.081908 -1.207268
v 0.712408 -2.081908 -0.003055
v -1.131597 -3.485206 -0.605162
vn 0.0000 0.4572 -0.8894
vn -0.0000 0.3065 0.9519
vn 0.0000 -0.9178 -0.3970
vn -0.0000 -0.1913 0.9815
vn 0.0000 0.0101 -0.9999
vn 0.0000 -0.3731 -0.9278
vn 0.0000 0.7174 -0.6966
vn 0.0000 -0.4503 0.8929
vn 0.0000 0.6796 0.7336
vn 0.0000 -0.2912 -0.9567
vn 0.6247 -0.5522 -0.5522
vn 0.0000 -0.7071 0.7071
vn 0.6247 -0.5522 0.5522
vn 0.0000 -0.7071 -0.7071
vn 0.0000 0.7071 0.7071
vn 0.0000 0.7071 -0.7071
vn 0.6247 0.5522 -0.5522
vn -0.6247 -0.5522 0.5522
vn -0.6247 -0.5522 -0.5522
vn 0.6247 0.5522 0.5522
vn -0.6247 0.5522 -0.5522
vn -0.6247 0.5522 0.5522
vn 0.0000 -1.0000 0.0000
vn 0.0000 0.0000 -1.0000
vn 0.0000 0.0000 1.0000
vn 0.0000 1.0000 0.0000
vn 0.7932 -0.4306 -0.4306
vn 0.7932 -0.4306 0.4306
vn 0.7932 0.4306 -0.4306
vn -0.7932 -0.4306 0.4306
vn -0.7932 -0.4306 -0.4306
vn 0.7932 0.4306 0.4306
vn -0.7932 0.4306 -0.4306
vn -0.7932 0.4306 0.4306
s off
f 10//1 4//1 8//1 11//1
f 12//2 6//2 2//2 9//2
f 3//3 7//3 13//3 14//3
f 5//4 12//4 9//4 1//4
f 3//5 10//5 11//5 7//5
f 14//6 13//6 17//6 16//6
f 19//7 15//7 18//7 20//7
f 5//8 1//8 16//8 17//8
f 2//9 6//9 20//9 18//9
f 8//10 4//10 15//10 19//10
f 27//11 28//11 43//11
f 30//12 39//12 42//12 31//12
f 25//13 27//13 43//13
f 29//14 36//14 37//14 40//14
f 41//15 45//15 33//15 32//15
f 38//16 35//16 34//16 44//16
f 28//17 26//17 43//17
f 23//18 21//18 46//18
f 24//19 23//19 46//19
f 26//20 25//20 43//20
f 22//21 24//21 46//21
f 21//22 22//22 46//22
f 39//23 30//23 29//23 40//23
f 35//24 38//24 37//24 36//24
f 31//25 42//25 41//25 32//25
f 44//26 34//26 33//26 45//26
f 53//27 54//27 69//27
f 56//12 65//12 68//12 57//12
f 51//28 53//28 69//28
f 55//14 62//14 63//14 66//14
f 67//15 71//15 59//15 58//15
f 64//16 61//16 60//16 70//16
f 54//29 52//29 69//29
f 49//30 47//30 72//30
f 50//31 49//31 72//31
f 52//32 51//32 69//32
f 48//33 50//33 72//33
f 47//34 48//34 72//34
f 65//23 56//23 55//23 66//23
f 61//24 64//24 63//24 62//24
f 57//25 68//25 67//25 58//25
f 70//26 60//26 59//26 71//26
